<svg xmlns="http://www.w3.org/2000/svg" viewBox="0 0 400 500" width="400" height="500">
<defs>
  <style><![CDATA[
    @import url('https://fonts.googleapis.com/css2?family=JetBrains+Mono:wght@400;500&family=Plus+Jakarta+Sans:wght@700;800&display=swap');
  ]]></style>

  <radialGradient id="bg" cx="50%" cy="32%" r="68%">
    <stop offset="0%" stop-color="#0d1835"/>
    <stop offset="100%" stop-color="#030712"/>
  </radialGradient>
  <radialGradient id="glow" cx="50%" cy="46%" r="52%">
    <stop offset="0%" stop-color="#818cf8" stop-opacity="0.11"/>
    <stop offset="100%" stop-color="#818cf8" stop-opacity="0"/>
  </radialGradient>
  <linearGradient id="prog" x1="0%" y1="0%" x2="100%" y2="0%">
    <stop offset="0%" stop-color="#6366f1"/>
    <stop offset="100%" stop-color="#a78bfa"/>
  </linearGradient>
  <linearGradient id="vel" x1="0%" y1="100%" x2="0%" y2="0%">
    <stop offset="0%" stop-color="#22d3ee" stop-opacity="0.45"/>
    <stop offset="100%" stop-color="#818cf8"/>
  </linearGradient>
  <linearGradient id="grn" x1="0%" y1="0%" x2="100%" y2="0%">
    <stop offset="0%" stop-color="#4ade80" stop-opacity="0.75"/>
    <stop offset="100%" stop-color="#22d3ee" stop-opacity="0.75"/>
  </linearGradient>
  <linearGradient id="acc" x1="0%" y1="0%" x2="100%" y2="100%">
    <stop offset="0%" stop-color="#818cf8"/>
    <stop offset="100%" stop-color="#a78bfa"/>
  </linearGradient>

  <filter id="cshadow" x="-5%" y="-5%" width="115%" height="120%">
    <feDropShadow dx="2" dy="3" stdDeviation="6" flood-color="#6366f1" flood-opacity="0.12"/>
  </filter>
</defs>

<!-- ── Background ── -->
<rect width="400" height="500" fill="url(#bg)"/>
<ellipse cx="200" cy="240" rx="205" ry="175" fill="url(#glow)"/>

<!-- Dot grid -->
<g fill="#818cf8" opacity="0.05">
  <circle cx="40" cy="28" r="1.5"/><circle cx="80" cy="28" r="1.5"/><circle cx="120" cy="28" r="1.5"/>
  <circle cx="160" cy="28" r="1.5"/><circle cx="200" cy="28" r="1.5"/><circle cx="240" cy="28" r="1.5"/>
  <circle cx="280" cy="28" r="1.5"/><circle cx="320" cy="28" r="1.5"/><circle cx="360" cy="28" r="1.5"/>
  <circle cx="40" cy="472" r="1.5"/><circle cx="80" cy="472" r="1.5"/><circle cx="120" cy="472" r="1.5"/>
  <circle cx="160" cy="472" r="1.5"/><circle cx="200" cy="472" r="1.5"/><circle cx="240" cy="472" r="1.5"/>
  <circle cx="280" cy="472" r="1.5"/><circle cx="320" cy="472" r="1.5"/><circle cx="360" cy="472" r="1.5"/>
</g>

<!-- Corner accents -->
<polyline points="20,40 20,20 40,20" fill="none" stroke="url(#acc)" stroke-width="1.5" stroke-linecap="round" opacity="0.45"/>
<polyline points="360,20 380,20 380,40" fill="none" stroke="url(#acc)" stroke-width="1.5" stroke-linecap="round" opacity="0.45"/>
<polyline points="20,460 20,480 40,480" fill="none" stroke="url(#acc)" stroke-width="1.5" stroke-linecap="round" opacity="0.45"/>
<polyline points="360,480 380,480 380,460" fill="none" stroke="url(#acc)" stroke-width="1.5" stroke-linecap="round" opacity="0.45"/>

<!-- Connector lines -->
<line x1="162" y1="133" x2="80"  y2="151" stroke="rgba(129,140,248,.09)" stroke-width="1" stroke-dasharray="4 5"/>
<line x1="238" y1="133" x2="320" y2="151" stroke="rgba(129,140,248,.09)" stroke-width="1" stroke-dasharray="4 5"/>
<line x1="80"  y1="343" x2="80"  y2="362" stroke="rgba(129,140,248,.09)" stroke-width="1" stroke-dasharray="4 5"/>
<line x1="320" y1="343" x2="320" y2="362" stroke="rgba(129,140,248,.09)" stroke-width="1" stroke-dasharray="4 5"/>


<!-- ════════════════════════════════════ -->
<!--  VELOCITY card  (top-left)         -->
<!--  x=20 y=48 w=158 h=85             -->
<!-- ════════════════════════════════════ -->
<rect x="22" y="51" width="158" height="85" rx="13" fill="rgba(99,102,241,.07)"/>
<rect x="20" y="48" width="158" height="85" rx="12" fill="#0a1525" stroke="rgba(129,140,248,.22)" stroke-width="1" filter="url(#cshadow)"/>

<text x="35" y="67" font-family="'JetBrains Mono','Courier New',monospace" font-size="8.5" fill="#818cf8" letter-spacing="1.8" opacity="0.9">VELOCITY</text>
<text x="35" y="97" font-family="'Plus Jakarta Sans',Arial,sans-serif" font-weight="800" font-size="29" fill="#f1f5f9" letter-spacing="-1">84</text>
<text x="77" y="94" font-family="'JetBrains Mono','Courier New',monospace" font-size="10" fill="#475569">pts</text>
<text x="100" y="83" font-family="'JetBrains Mono','Courier New',monospace" font-size="9" fill="#4ade80">&#x2191; 12%</text>
<text x="35" y="124" font-family="'JetBrains Mono','Courier New',monospace" font-size="7.5" fill="#334155">Sprint avg: 72 pts</text>

<!-- Sparkline (7 bars, bottomed at y=126, heights: 11,18,14,22,17,25,30) -->
<rect x="112" y="115" width="5" height="11" rx="2" fill="url(#vel)" opacity="0.4"/>
<rect x="120" y="108" width="5" height="18" rx="2" fill="url(#vel)" opacity="0.5"/>
<rect x="128" y="112" width="5" height="14" rx="2" fill="url(#vel)" opacity="0.58"/>
<rect x="136" y="104" width="5" height="22" rx="2" fill="url(#vel)" opacity="0.68"/>
<rect x="144" y="109" width="5" height="17" rx="2" fill="url(#vel)" opacity="0.75"/>
<rect x="152" y="101" width="5" height="25" rx="2" fill="url(#vel)" opacity="0.85"/>
<rect x="160" y="96"  width="5" height="30" rx="2" fill="#818cf8"/>


<!-- ════════════════════════════════════ -->
<!--  SPRINT 14 card  (top-right)       -->
<!--  x=222 y=48 w=158 h=85            -->
<!-- ════════════════════════════════════ -->
<rect x="224" y="51" width="158" height="85" rx="13" fill="rgba(34,211,238,.05)"/>
<rect x="222" y="48" width="158" height="85" rx="12" fill="#0a1525" stroke="rgba(34,211,238,.22)" stroke-width="1" filter="url(#cshadow)"/>

<text x="237" y="67" font-family="'JetBrains Mono','Courier New',monospace" font-size="8.5" fill="#22d3ee" letter-spacing="1.8" opacity="0.9">SPRINT 14</text>
<text x="237" y="86" font-family="'JetBrains Mono','Courier New',monospace" font-size="8.5" fill="#475569">Progress</text>
<text x="371" y="86" font-family="'Plus Jakarta Sans',Arial,sans-serif" font-weight="700" font-size="12" fill="#f1f5f9" text-anchor="end">82%</text>
<!-- Track -->
<rect x="237" y="92" width="124" height="5" rx="2.5" fill="rgba(129,140,248,.15)"/>
<!-- Fill 82% = 102px of 124 -->
<rect x="237" y="92" width="102" height="5" rx="2.5" fill="url(#prog)"/>
<text x="237" y="112" font-family="'JetBrains Mono','Courier New',monospace" font-size="8.5" fill="#475569">End: Jun 20</text>
<text x="371" y="112" font-family="'JetBrains Mono','Courier New',monospace" font-size="8.5" fill="#fbbf24" text-anchor="end">3 days left</text>
<text x="237" y="126" font-family="'JetBrains Mono','Courier New',monospace" font-size="7.5" fill="#334155">13 tasks remaining</text>


<!-- ═══════════════════════════════════════════ -->
<!--  SPRINT BOARD  (main card)                -->
<!--  x=20 y=151 w=360 h=192                  -->
<!-- ═══════════════════════════════════════════ -->
<rect x="22" y="154" width="360" height="192" rx="15" fill="rgba(129,140,248,.05)"/>
<rect x="20" y="151" width="360" height="192" rx="14" fill="#0a1525" stroke="rgba(129,140,248,.28)" stroke-width="1.5" filter="url(#cshadow)"/>

<!-- Traffic lights -->
<circle cx="40" cy="170" r="4.5" fill="#fb7185" opacity="0.85"/>
<circle cx="54" cy="170" r="4.5" fill="#fbbf24" opacity="0.85"/>
<circle cx="68" cy="170" r="4.5" fill="#4ade80" opacity="0.85"/>

<!-- Title -->
<text x="197" y="174" font-family="'JetBrains Mono','Courier New',monospace" font-size="9" fill="#475569" text-anchor="middle" letter-spacing="1.2">SPRINT BOARD</text>
<!-- Blinking cursor -->
<text x="253" y="174" font-family="'JetBrains Mono','Courier New',monospace" font-size="9" fill="#818cf8">&#x258c;<animate attributeName="opacity" values="1;0;1" dur="1.1s" repeatCount="indefinite"/></text>

<!-- Chrome divider -->
<line x1="20" y1="184" x2="380" y2="184" stroke="rgba(129,140,248,.14)" stroke-width="1"/>

<!-- Column header chips -->
<rect x="28"  y="190" width="110" height="16" rx="5" fill="rgba(129,140,248,.1)"/>
<text x="83"  y="202" font-family="'JetBrains Mono','Courier New',monospace" font-size="7.5" fill="#818cf8" text-anchor="middle" letter-spacing="0.5">TODO  ·  3</text>

<rect x="145" y="190" width="110" height="16" rx="5" fill="rgba(251,191,36,.08)"/>
<text x="200" y="202" font-family="'JetBrains Mono','Courier New',monospace" font-size="7.5" fill="#fbbf24" text-anchor="middle" letter-spacing="0.5">IN PROG  ·  2</text>

<rect x="262" y="190" width="110" height="16" rx="5" fill="rgba(74,222,128,.08)"/>
<text x="317" y="202" font-family="'JetBrains Mono','Courier New',monospace" font-size="7.5" fill="#4ade80" text-anchor="middle" letter-spacing="0.5">DONE  ·  3</text>

<!-- Column dividers -->
<line x1="142" y1="186" x2="142" y2="334" stroke="rgba(129,140,248,.1)" stroke-width="1"/>
<line x1="259" y1="186" x2="259" y2="334" stroke="rgba(129,140,248,.1)" stroke-width="1"/>

<!-- ── TODO tasks ── -->
<!-- Task 1 -->
<rect x="31"  y="212" width="106" height="31" rx="6" fill="#0f1e36" stroke="rgba(129,140,248,.2)" stroke-width="1"/>
<rect x="35"  y="218" width="3"   height="19" rx="1.5" fill="#818cf8"/>
<text x="43"  y="228" font-family="'JetBrains Mono','Courier New',monospace" font-size="7.5" fill="#94a3b8">API Integration</text>
<text x="43"  y="239" font-family="'JetBrains Mono','Courier New',monospace" font-size="7"   fill="#475569">8 pts · 2 days</text>
<!-- Task 2 -->
<rect x="31"  y="248" width="106" height="31" rx="6" fill="#0f1e36" stroke="rgba(129,140,248,.2)" stroke-width="1"/>
<rect x="35"  y="254" width="3"   height="19" rx="1.5" fill="#818cf8"/>
<text x="43"  y="264" font-family="'JetBrains Mono','Courier New',monospace" font-size="7.5" fill="#94a3b8">Design Review</text>
<text x="43"  y="275" font-family="'JetBrains Mono','Courier New',monospace" font-size="7"   fill="#475569">5 pts · 1 day</text>
<!-- Task 3 (dimmer placeholder) -->
<rect x="31"  y="284" width="106" height="22" rx="6" fill="#0c1828" stroke="rgba(129,140,248,.1)" stroke-width="1"/>
<rect x="35"  y="289" width="3"   height="12" rx="1.5" fill="#334155"/>
<rect x="43"  y="290" width="54"  height="5"  rx="2" fill="#1e293b"/>
<rect x="43"  y="298" width="36"  height="4"  rx="2" fill="#1e293b" opacity="0.6"/>

<!-- ── IN PROGRESS tasks ── -->
<!-- Task 4 - amber accent, has avatars -->
<rect x="148" y="212" width="106" height="38" rx="6" fill="#0f1e36" stroke="rgba(251,191,36,.25)" stroke-width="1"/>
<rect x="152" y="218" width="3"   height="26" rx="1.5" fill="#fbbf24"/>
<text x="160" y="228" font-family="'JetBrains Mono','Courier New',monospace" font-size="7.5" fill="#94a3b8">Auth Module</text>
<text x="160" y="238" font-family="'JetBrains Mono','Courier New',monospace" font-size="7"   fill="#fbbf24">In review</text>
<circle cx="160" cy="246" r="5.5" fill="#6366f1"/>
<text x="160" y="249.5" font-family="Arial,sans-serif" font-size="5.5" fill="white" text-anchor="middle">SP</text>
<circle cx="172" cy="246" r="5.5" fill="#a78bfa" opacity="0.9"/>
<circle cx="184" cy="246" r="5.5" fill="#22d3ee" opacity="0.85"/>
<!-- Task 5 -->
<rect x="148" y="255" width="106" height="31" rx="6" fill="#0f1e36" stroke="rgba(251,191,36,.25)" stroke-width="1"/>
<rect x="152" y="261" width="3"   height="19" rx="1.5" fill="#fbbf24"/>
<text x="160" y="271" font-family="'JetBrains Mono','Courier New',monospace" font-size="7.5" fill="#94a3b8">Dashboard UI</text>
<text x="160" y="282" font-family="'JetBrains Mono','Courier New',monospace" font-size="7"   fill="#475569">13 pts · 3 days</text>

<!-- ── DONE tasks ── -->
<!-- Task 6 -->
<rect x="263" y="212" width="106" height="31" rx="6" fill="#0f1e36" stroke="rgba(74,222,128,.18)" stroke-width="1"/>
<rect x="267" y="218" width="3"   height="19" rx="1.5" fill="#4ade80"/>
<text x="275" y="228" font-family="'JetBrains Mono','Courier New',monospace" font-size="7.5" fill="#475569">DB Schema</text>
<circle cx="354" cy="223" r="6"  fill="rgba(74,222,128,.15)" stroke="rgba(74,222,128,.3)" stroke-width="1"/>
<text x="354" y="227" font-family="Arial,sans-serif" font-size="9" fill="#4ade80" text-anchor="middle">&#x2713;</text>
<text x="275" y="239" font-family="'JetBrains Mono','Courier New',monospace" font-size="7"   fill="#334155">Done · 8 pts</text>
<!-- Task 7 -->
<rect x="263" y="248" width="106" height="31" rx="6" fill="#0f1e36" stroke="rgba(74,222,128,.18)" stroke-width="1"/>
<rect x="267" y="254" width="3"   height="19" rx="1.5" fill="#4ade80"/>
<text x="275" y="264" font-family="'JetBrains Mono','Courier New',monospace" font-size="7.5" fill="#475569">CI Pipeline</text>
<circle cx="354" cy="259" r="6"  fill="rgba(74,222,128,.15)" stroke="rgba(74,222,128,.3)" stroke-width="1"/>
<text x="354" y="263" font-family="Arial,sans-serif" font-size="9" fill="#4ade80" text-anchor="middle">&#x2713;</text>
<text x="275" y="275" font-family="'JetBrains Mono','Courier New',monospace" font-size="7"   fill="#334155">Done · 5 pts</text>
<!-- Task 8 -->
<rect x="263" y="284" width="106" height="31" rx="6" fill="#0f1e36" stroke="rgba(74,222,128,.18)" stroke-width="1"/>
<rect x="267" y="290" width="3"   height="19" rx="1.5" fill="#4ade80"/>
<text x="275" y="300" font-family="'JetBrains Mono','Courier New',monospace" font-size="7.5" fill="#475569">Unit Tests</text>
<circle cx="354" cy="295" r="6"  fill="rgba(74,222,128,.15)" stroke="rgba(74,222,128,.3)" stroke-width="1"/>
<text x="354" y="299" font-family="Arial,sans-serif" font-size="9" fill="#4ade80" text-anchor="middle">&#x2713;</text>
<text x="275" y="311" font-family="'JetBrains Mono','Courier New',monospace" font-size="7"   fill="#334155">Done · 3 pts</text>

<!-- Sprint footer -->
<line x1="20" y1="321" x2="380" y2="321" stroke="rgba(129,140,248,.1)" stroke-width="1"/>
<text x="36"  y="336" font-family="'JetBrains Mono','Courier New',monospace" font-size="7.5" fill="#475569">8 tasks total</text>
<circle cx="110" cy="333" r="2" fill="#475569" opacity="0.4"/>
<text x="118" y="336" font-family="'JetBrains Mono','Courier New',monospace" font-size="7.5" fill="#4ade80">3 done</text>
<circle cx="155" cy="333" r="2" fill="#475569" opacity="0.4"/>
<text x="163" y="336" font-family="'JetBrains Mono','Courier New',monospace" font-size="7.5" fill="#fbbf24">2 active</text>
<circle cx="205" cy="333" r="2" fill="#475569" opacity="0.4"/>
<text x="213" y="336" font-family="'JetBrains Mono','Courier New',monospace" font-size="7.5" fill="#818cf8">3 queued</text>
<!-- Mini progress bar on footer right -->
<rect x="296" y="329" width="70" height="5" rx="2.5" fill="rgba(129,140,248,.12)"/>
<rect x="296" y="329" width="42" height="5" rx="2.5" fill="url(#prog)" opacity="0.7"/>
<text x="373" y="336" font-family="'JetBrains Mono','Courier New',monospace" font-size="7.5" fill="#64748b" text-anchor="end">60%</text>


<!-- ═══════════════════════════════════ -->
<!--  TEAM card  (bottom-left)         -->
<!--  x=20 y=362 w=158 h=86           -->
<!-- ═══════════════════════════════════ -->
<rect x="22" y="365" width="158" height="86" rx="13" fill="rgba(99,102,241,.07)"/>
<rect x="20" y="362" width="158" height="86" rx="12" fill="#0a1525" stroke="rgba(129,140,248,.22)" stroke-width="1" filter="url(#cshadow)"/>

<text x="35" y="381" font-family="'JetBrains Mono','Courier New',monospace" font-size="8.5" fill="#818cf8" letter-spacing="1.8" opacity="0.9">TEAM</text>
<text x="35" y="411" font-family="'Plus Jakarta Sans',Arial,sans-serif" font-weight="800" font-size="29" fill="#f1f5f9" letter-spacing="-1">42</text>
<text x="76" y="408" font-family="'JetBrains Mono','Courier New',monospace" font-size="10" fill="#475569">members</text>

<!-- Avatar row -->
<circle cx="35"  cy="432" r="6.5" fill="#6366f1"/>
<text   x="35"  y="436" font-family="Arial,sans-serif" font-size="6" fill="white" text-anchor="middle">SP</text>
<circle cx="49"  cy="432" r="6.5" fill="#a78bfa" opacity="0.9"/>
<circle cx="63"  cy="432" r="6.5" fill="#22d3ee" opacity="0.85"/>
<circle cx="77"  cy="432" r="6.5" fill="#fbbf24" opacity="0.85"/>
<circle cx="91"  cy="432" r="6.5" fill="#fb7185" opacity="0.85"/>
<circle cx="105" cy="432" r="6.5" fill="#4ade80" opacity="0.85"/>
<rect x="113" y="425" width="40" height="14" rx="7" fill="rgba(129,140,248,.15)" stroke="rgba(129,140,248,.25)" stroke-width="1"/>
<text x="133" y="436" font-family="'JetBrains Mono','Courier New',monospace" font-size="8" fill="#818cf8" text-anchor="middle">+36</text>
<text x="35"  y="444" font-family="'JetBrains Mono','Courier New',monospace" font-size="7.5" fill="#334155">6 pods  ·  cross-functional</text>


<!-- ═══════════════════════════════════════ -->
<!--  DELIVERY card  (bottom-right)        -->
<!--  x=222 y=362 w=158 h=86             -->
<!-- ═══════════════════════════════════════ -->
<rect x="224" y="365" width="158" height="86" rx="13" fill="rgba(74,222,128,.05)"/>
<rect x="222" y="362" width="158" height="86" rx="12" fill="#0a1525" stroke="rgba(74,222,128,.22)" stroke-width="1" filter="url(#cshadow)"/>

<text x="237" y="381" font-family="'JetBrains Mono','Courier New',monospace" font-size="8.5" fill="#4ade80" letter-spacing="1.8" opacity="0.9">DELIVERY</text>

<!-- ON TRACK pill with pulsing dot -->
<rect x="237" y="387" width="74" height="17" rx="8.5" fill="rgba(74,222,128,.12)" stroke="rgba(74,222,128,.3)" stroke-width="1"/>
<circle cx="249" cy="395.5" r="3.5" fill="#4ade80">
  <animate attributeName="opacity" values="1;0.25;1" dur="2s" repeatCount="indefinite"/>
  <animate attributeName="r"       values="3.5;2.2;3.5" dur="2s" repeatCount="indefinite"/>
</circle>
<text x="257" y="399" font-family="'JetBrains Mono','Courier New',monospace" font-size="7.5" fill="#4ade80">ON TRACK</text>

<text x="237" y="417" font-family="'JetBrains Mono','Courier New',monospace" font-size="8.5" fill="#475569">Overall</text>
<text x="371" y="417" font-family="'Plus Jakarta Sans',Arial,sans-serif" font-weight="700" font-size="12" fill="#f1f5f9" text-anchor="end">78%</text>
<!-- Track -->
<rect x="237" y="423" width="124" height="5" rx="2.5" fill="rgba(74,222,128,.15)"/>
<!-- Fill 78% = 97px of 124 -->
<rect x="237" y="423" width="97"  height="5" rx="2.5" fill="url(#grn)"/>
<text x="237" y="443" font-family="'JetBrains Mono','Courier New',monospace" font-size="8.5" fill="#475569">Sprint ends in</text>
<text x="371" y="443" font-family="'Plus Jakarta Sans',Arial,sans-serif" font-weight="700" font-size="12" fill="#fbbf24" text-anchor="end">3 days</text>

</svg>
